<?xml version="1.0" encoding="utf-8"?>
<svg xmlns="http://www.w3.org/2000/svg" height="512pt" version="1.1" viewBox="0 0 512 512" width="512pt">
<path d="M 0.00 0.00 L 512.00 0.00 L 512.00 512.00 L 0.00 512.00 L 0.00 0.00 Z" fill="#cdcbd9" opacity="1.00" stroke="#cdcbd9" stroke-width="0.25"/>
<path d="M 284.09 60.02 C 285.96 57.27 287.88 54.07 291.03 52.70 C 294.39 51.78 296.37 54.92 297.78 57.38 C 302.27 55.41 307.26 58.17 308.35 62.85 C 310.62 63.67 313.50 63.81 315.02 65.95 C 315.76 67.46 315.92 69.17 316.30 70.79 C 319.38 72.27 322.55 74.37 323.05 78.05 C 324.55 81.15 322.73 85.53 319.03 85.56 C 315.42 85.05 311.86 84.14 308.19 84.11 C 306.65 85.46 305.10 86.80 303.49 88.05 C 303.46 87.54 303.39 86.51 303.35 85.99 C 304.74 84.27 305.99 82.44 307.24 80.61 C 304.27 79.82 301.39 78.74 298.75 77.16 C 298.69 78.41 298.63 79.66 298.57 80.91 C 298.17 80.62 297.37 80.04 296.97 79.75 C 298.77 74.39 294.19 70.56 291.11 66.92 C 292.62 63.77 294.90 60.76 295.10 57.16 C 294.85 54.72 291.40 54.00 289.98 55.93 C 287.48 58.47 284.92 61.50 284.37 65.13 C 284.12 71.67 288.63 77.28 288.52 83.80 C 288.49 84.23 288.43 85.10 288.40 85.53 C 285.97 82.45 285.56 78.43 284.22 74.86 C 282.62 70.15 281.05 64.50 284.09 60.02 Z" fill="#5a142c" opacity="1.00" stroke="#5a142c" stroke-width="0.25"/>
<path d="M 289.98 55.93 C 291.40 54.00 294.85 54.72 295.10 57.16 C 294.90 60.76 292.62 63.77 291.11 66.92 C 294.19 70.56 298.77 74.39 296.97 79.75 C 296.94 80.06 296.88 80.69 296.85 81.00 C 297.78 83.23 298.99 85.31 300.12 87.44 C 295.95 87.46 292.04 85.92 288.52 83.80 C 288.63 77.28 284.12 71.67 284.37 65.13 C 284.92 61.50 287.48 58.47 289.98 55.93 Z" fill="#fcc3b1" opacity="1.00" stroke="#fcc3b1" stroke-width="0.25"/>
<path d="M 299.46 59.38 C 301.92 57.65 306.51 60.48 305.47 63.55 C 303.49 66.46 301.13 69.12 298.61 71.56 C 296.29 71.70 294.94 68.83 294.12 67.00 C 295.15 64.05 297.07 61.38 299.46 59.38 Z" fill="#fbc2b1" opacity="1.00" stroke="#fbc2b1" stroke-width="0.25"/>
<path d="M 308.34 65.34 C 309.47 65.34 310.61 65.34 311.76 65.33 C 312.70 66.85 314.49 68.46 313.54 70.42 C 311.23 73.13 308.52 75.55 305.54 77.51 C 303.28 78.85 300.85 76.56 301.44 74.18 C 302.98 70.73 305.87 68.14 308.34 65.34 Z" fill="#fbc2af" opacity="1.00" stroke="#fbc2af" stroke-width="0.25"/>
<path d="M 316.20 73.44 C 318.27 73.17 319.76 75.28 320.46 76.98 C 318.33 79.20 315.61 80.78 312.85 82.09 C 310.94 83.08 307.82 81.45 308.62 79.04 C 310.60 76.60 313.15 74.37 316.20 73.44 Z" fill="#fbc3b5" opacity="1.00" stroke="#fbc3b5" stroke-width="0.25"/>
<path d="M 298.75 77.16 C 301.39 78.74 304.27 79.82 307.24 80.61 C 305.99 82.44 304.74 84.27 303.35 85.99 C 302.29 86.51 301.21 87.00 300.12 87.44 C 298.99 85.31 297.78 83.23 296.85 81.00 C 296.88 80.69 296.94 80.06 296.97 79.75 C 297.37 80.04 298.17 80.62 298.57 80.91 C 298.63 79.66 298.69 78.41 298.75 77.16 Z" fill="#f2998b" opacity="1.00" stroke="#f2998b" stroke-width="0.25"/>
<path d="M 315.87 82.34 C 317.51 81.23 319.01 79.34 321.22 79.70 C 322.39 83.25 318.14 84.59 315.87 82.34 Z" fill="#f0adb5" opacity="1.00" stroke="#f0adb5" stroke-width="0.25"/>
<path d="M 288.40 85.53 C 288.43 85.10 288.49 84.23 288.52 83.80 C 292.04 85.92 295.95 87.46 300.12 87.44 C 301.21 87.00 302.29 86.51 303.35 85.99 C 303.39 86.51 303.46 87.54 303.49 88.05 C 302.63 107.09 300.00 126.14 294.47 144.42 C 293.42 147.72 293.56 151.52 291.28 154.33 C 287.87 158.60 285.98 163.77 283.62 168.64 C 277.18 182.70 270.10 196.46 263.06 210.23 C 261.60 213.19 259.85 216.58 261.21 219.92 C 261.87 222.83 264.40 224.72 266.78 226.24 C 280.29 234.54 294.28 242.04 307.92 250.13 C 315.26 254.44 321.58 260.19 327.69 266.05 C 327.48 258.53 326.68 250.38 330.67 243.61 C 333.09 239.30 339.00 239.52 343.05 240.99 C 355.54 246.60 365.45 256.45 374.41 266.56 C 381.43 274.74 388.28 283.13 393.97 292.31 C 394.98 293.51 396.12 294.58 397.29 295.63 C 394.82 300.48 392.60 305.46 389.88 310.19 C 389.31 309.42 388.74 308.66 388.18 307.90 C 380.47 295.67 369.19 286.24 357.58 277.89 C 357.87 294.84 353.94 312.21 344.69 326.57 C 342.41 330.23 339.22 333.26 335.59 335.57 C 333.45 337.03 330.90 338.23 329.68 340.66 C 323.16 352.98 314.41 364.16 303.85 373.26 C 303.09 372.62 302.33 371.98 301.59 371.33 L 301.07 370.87 C 294.18 364.07 282.96 366.72 275.96 371.93 C 269.34 377.45 261.03 380.10 253.07 383.00 C 245.43 385.40 241.03 393.39 239.91 400.90 C 239.17 402.81 237.98 404.58 236.12 405.55 C 232.28 407.00 228.03 406.43 224.00 406.68 C 202.74 407.52 181.44 399.50 165.55 385.45 C 153.66 374.97 144.24 360.85 141.93 344.94 C 140.42 334.58 142.87 323.07 150.66 315.65 C 158.29 307.93 171.11 306.16 180.57 311.47 C 188.43 315.78 193.40 325.11 191.96 334.06 C 191.32 339.15 188.31 344.20 183.49 346.31 C 179.94 347.36 175.25 346.70 173.65 342.91 C 172.64 339.97 175.23 337.92 176.92 335.96 C 179.34 333.70 179.20 329.78 178.03 326.95 C 174.95 320.90 166.19 319.89 161.28 324.27 C 154.51 329.62 153.89 339.34 155.90 347.13 C 159.48 360.08 168.20 371.22 178.91 379.14 C 191.25 388.35 206.52 393.88 221.99 393.74 C 228.00 393.67 234.16 393.82 239.99 392.14 C 242.76 389.22 244.38 385.14 248.06 383.14 C 257.23 378.23 268.61 376.88 275.99 368.97 C 274.56 365.92 272.32 363.36 270.27 360.72 C 261.20 349.51 251.51 338.37 246.13 324.79 C 243.80 319.52 243.18 313.69 243.53 307.98 C 243.47 306.03 243.99 303.87 242.85 302.13 C 235.25 288.84 227.11 275.88 219.30 262.72 C 218.16 260.91 217.00 259.04 215.30 257.71 C 211.83 255.86 207.72 256.52 203.97 256.82 C 191.17 258.11 179.79 264.55 167.84 268.80 C 163.73 270.53 159.04 271.61 154.68 270.20 C 149.81 268.06 145.63 264.69 141.16 261.85 C 125.57 251.80 109.82 241.95 94.90 230.92 C 94.17 230.32 93.43 229.72 92.69 229.13 C 95.83 227.02 98.41 224.20 100.46 221.05 C 100.90 219.72 101.28 218.37 101.57 217.01 C 105.87 220.17 110.85 222.18 115.72 224.28 C 129.97 230.16 144.49 235.52 157.95 243.13 C 160.25 244.26 162.67 246.37 165.40 245.28 C 171.10 243.47 176.72 241.40 182.25 239.14 C 188.80 236.01 195.01 232.20 201.13 228.29 C 190.58 228.69 179.28 229.60 169.63 224.43 C 165.43 222.44 162.21 218.99 159.65 215.19 C 152.37 217.08 143.89 216.27 138.49 210.52 C 132.07 204.65 131.61 193.21 138.48 187.51 C 141.90 184.28 146.88 184.42 151.21 185.21 C 150.51 174.09 155.94 163.26 164.87 156.73 C 163.65 154.09 162.69 151.31 162.45 148.39 C 164.48 148.77 166.49 149.28 168.51 149.76 C 171.73 141.83 179.92 136.23 188.37 135.58 C 187.02 138.03 185.40 140.31 183.91 142.68 C 189.28 141.62 194.90 141.04 200.11 143.16 C 198.08 144.62 195.97 145.94 193.85 147.25 C 203.60 147.44 212.07 152.72 219.71 158.25 C 220.04 158.49 220.72 158.96 221.06 159.20 C 219.98 161.53 220.39 163.94 222.31 165.70 C 222.97 166.44 223.66 167.14 224.36 167.84 C 227.19 170.55 229.91 173.45 231.83 176.89 C 232.04 177.30 232.44 178.12 232.64 178.53 C 233.23 179.77 233.83 181.02 234.49 182.25 C 234.83 182.89 235.19 183.53 235.56 184.17 C 235.45 187.95 235.69 191.81 234.62 195.48 C 233.47 200.24 230.90 204.46 228.87 208.87 C 232.92 206.86 237.47 205.00 240.18 201.20 C 248.74 187.25 256.88 173.05 264.85 158.75 C 267.92 153.70 267.99 147.63 270.01 142.19 C 274.60 128.67 280.03 115.46 285.17 102.14 C 287.58 96.93 288.57 91.25 288.40 85.53 Z" fill="#3c0c40" opacity="1.00" stroke="#3c0c40" stroke-width="0.25"/>
<path d="M 290.35 87.13 C 293.84 87.95 297.38 88.60 300.93 89.12 C 300.53 106.32 297.70 123.47 293.02 140.02 C 291.61 144.82 291.55 150.24 288.33 154.32 C 284.75 159.05 282.69 164.65 280.05 169.91 C 273.54 183.65 266.77 197.27 259.85 210.80 C 256.99 215.84 258.61 221.83 261.68 226.35 C 255.22 224.74 249.80 220.56 243.37 218.87 C 238.35 217.35 232.59 216.31 227.70 218.78 C 223.00 221.29 219.86 226.84 220.65 232.19 C 221.34 238.24 224.36 243.65 227.14 248.96 C 235.49 263.48 245.40 277.01 254.63 290.96 C 251.15 292.90 247.84 295.12 244.75 297.63 C 235.60 284.81 228.57 270.54 218.97 258.00 C 217.16 255.47 214.10 254.21 211.04 254.27 C 199.29 253.96 187.80 257.52 177.11 262.14 C 171.73 264.15 166.52 266.69 160.91 268.03 C 158.07 268.77 155.13 267.81 152.71 266.32 C 138.42 256.93 124.16 247.49 109.84 238.14 C 105.34 235.16 100.57 232.59 96.39 229.17 C 98.53 226.45 100.54 223.62 102.38 220.69 C 115.02 227.14 128.35 232.05 141.41 237.56 C 147.39 240.53 153.43 243.39 159.31 246.56 C 164.60 249.66 170.42 245.97 175.63 244.53 C 186.26 241.56 195.12 234.79 204.72 229.65 C 206.71 228.84 207.27 226.72 208.25 225.03 C 209.71 223.74 211.63 223.14 213.28 222.13 C 218.17 219.60 220.65 213.79 226.10 212.14 C 230.18 210.76 234.34 209.39 237.84 206.79 C 241.68 204.28 243.89 200.14 246.37 196.42 C 250.24 190.28 254.37 184.28 257.63 177.78 C 261.64 169.76 267.28 162.44 269.46 153.61 C 273.07 138.23 279.37 123.69 284.92 108.96 C 287.61 101.95 290.59 94.79 290.35 87.13 Z" fill="#653784" opacity="1.00" stroke="#653784" stroke-width="0.25"/>
<path d="M 170.38 152.69 C 171.11 146.35 176.28 142.11 181.80 139.75 C 180.80 142.18 179.84 144.62 178.99 147.11 C 183.65 145.68 188.27 143.67 193.26 144.05 C 189.44 146.85 185.17 149.03 181.63 152.24 C 181.51 152.88 181.39 153.52 181.27 154.17 C 180.08 155.39 178.91 156.63 177.78 157.90 C 181.91 157.17 185.90 155.89 189.88 154.63 C 189.18 153.35 188.48 152.07 187.78 150.80 C 197.09 147.41 206.94 152.04 214.46 157.46 C 218.21 159.94 219.15 164.70 222.29 167.73 C 226.85 172.41 231.31 177.67 232.92 184.16 C 233.82 189.99 232.69 196.18 229.60 201.24 C 230.18 195.95 231.10 189.92 227.63 185.38 C 224.92 181.38 219.81 180.66 215.96 178.25 C 214.95 173.70 216.07 168.64 213.52 164.50 C 210.91 160.38 206.91 156.68 201.97 155.78 C 196.72 155.09 190.95 156.21 186.98 159.90 C 184.02 162.49 182.33 166.12 180.62 169.59 C 175.81 168.47 170.64 166.99 165.79 168.76 C 161.22 170.40 158.17 174.35 154.95 177.75 L 154.76 176.83 C 155.01 170.25 159.44 164.48 164.20 160.25 C 166.64 157.81 170.21 159.52 173.17 159.59 C 170.52 157.25 166.82 155.85 165.65 152.21 C 167.23 152.35 168.80 152.52 170.38 152.69 Z" fill="#643582" opacity="1.00" stroke="#643582" stroke-width="0.25"/>
<path d="M 219.71 158.25 C 223.00 150.71 233.53 148.10 240.14 152.90 C 248.68 158.17 250.28 171.23 243.58 178.60 C 241.48 181.18 238.64 182.99 235.56 184.17 C 235.19 183.53 234.83 182.89 234.49 182.25 C 239.22 180.35 243.24 176.60 244.80 171.66 C 247.88 163.21 241.12 152.69 232.00 152.54 C 227.37 152.47 223.72 155.77 221.06 159.20 C 220.72 158.96 220.04 158.49 219.71 158.25 Z" fill="#451529" opacity="1.00" stroke="#451529" stroke-width="0.25"/>
<path d="M 221.06 159.20 C 223.72 155.77 227.37 152.47 232.00 152.54 C 241.12 152.69 247.88 163.21 244.80 171.66 C 243.24 176.60 239.22 180.35 234.49 182.25 C 233.83 181.02 233.23 179.77 232.64 178.53 C 235.09 176.82 238.14 175.47 239.38 172.55 C 242.20 167.39 239.78 159.96 234.28 157.72 C 231.91 156.99 229.03 157.35 227.27 159.22 C 225.36 161.18 224.00 163.57 222.31 165.70 C 220.39 163.94 219.98 161.53 221.06 159.20 Z" fill="#fcc2b8" opacity="1.00" stroke="#fcc2b8" stroke-width="0.25"/>
<path d="M 186.98 159.90 C 190.95 156.21 196.72 155.09 201.97 155.78 C 206.91 156.68 210.91 160.38 213.52 164.50 C 216.07 168.64 214.95 173.70 215.96 178.25 C 219.81 180.66 224.92 181.38 227.63 185.38 C 231.10 189.92 230.18 195.95 229.60 201.24 C 229.25 202.32 228.69 203.32 228.20 204.35 C 227.81 202.79 227.37 201.25 227.23 199.65 C 228.08 194.82 228.69 188.99 224.73 185.29 C 219.66 180.16 211.83 181.09 205.35 182.03 C 205.26 181.61 205.10 180.79 205.02 180.37 C 207.91 180.26 210.80 180.00 213.69 179.74 C 213.91 173.99 214.08 167.58 210.02 162.98 C 204.85 156.04 193.79 155.92 187.74 161.74 C 184.41 164.54 183.73 169.02 181.85 172.71 C 177.68 171.50 173.55 169.13 169.07 169.97 C 162.54 171.10 156.41 177.01 156.94 183.96 C 157.71 190.76 163.34 195.32 167.98 199.71 C 168.26 199.98 168.81 200.53 169.08 200.80 C 166.89 203.13 164.98 205.73 163.37 208.51 C 163.20 208.15 162.86 207.45 162.69 207.10 C 163.34 204.83 164.70 202.67 164.70 200.29 C 161.03 195.25 156.49 190.79 153.78 185.06 C 153.03 182.47 152.84 178.90 154.76 176.83 L 154.95 177.75 C 158.17 174.35 161.22 170.40 165.79 168.76 C 170.64 166.99 175.81 168.47 180.62 169.59 C 182.33 166.12 184.02 162.49 186.98 159.90 Z" fill="#5d2a5d" opacity="1.00" stroke="#5d2a5d" stroke-width="0.25"/>
<path d="M 227.27 159.22 C 229.03 157.35 231.91 156.99 234.28 157.72 C 239.78 159.96 242.20 167.39 239.38 172.55 C 238.14 175.47 235.09 176.82 232.64 178.53 C 232.44 178.12 232.04 177.30 231.83 176.89 C 233.42 176.32 235.01 175.74 236.54 175.02 C 239.15 171.32 240.19 166.51 237.55 162.52 C 235.81 160.40 233.31 157.79 230.28 158.95 C 226.50 160.23 225.21 164.36 224.36 167.84 C 223.66 167.14 222.97 166.44 222.31 165.70 C 224.00 163.57 225.36 161.18 227.27 159.22 Z" fill="#561524" opacity="1.00" stroke="#561524" stroke-width="0.25"/>
<path d="M 187.74 161.74 C 193.79 155.92 204.85 156.04 210.02 162.98 C 214.08 167.58 213.91 173.99 213.69 179.74 C 210.80 180.00 207.91 180.26 205.02 180.37 C 205.23 176.55 201.14 173.94 197.79 175.79 C 194.94 176.97 195.53 180.41 195.23 182.88 C 190.12 184.10 185.37 186.39 181.00 189.26 C 178.43 188.04 175.35 185.27 172.49 187.28 C 169.22 189.23 171.70 193.11 171.85 195.97 C 170.81 197.45 169.33 198.53 167.98 199.71 C 163.34 195.32 157.71 190.76 156.94 183.96 C 156.41 177.01 162.54 171.10 169.07 169.97 C 173.55 169.13 177.68 171.50 181.85 172.71 C 183.73 169.02 184.41 164.54 187.74 161.74 Z" fill="#fbc5b1" opacity="1.00" stroke="#fbc5b1" stroke-width="0.25"/>
<path d="M 230.28 158.95 C 233.31 157.79 235.81 160.40 237.55 162.52 C 235.19 164.22 232.70 165.83 230.82 168.09 C 231.89 170.99 234.36 172.98 236.54 175.02 C 235.01 175.74 233.42 176.32 231.83 176.89 C 229.91 173.45 227.19 170.55 224.36 167.84 C 225.21 164.36 226.50 160.23 230.28 158.95 Z" fill="#f19586" opacity="1.00" stroke="#f19586" stroke-width="0.25"/>
<path d="M 230.82 168.09 C 232.70 165.83 235.19 164.22 237.55 162.52 C 240.19 166.51 239.15 171.32 236.54 175.02 C 234.36 172.98 231.89 170.99 230.82 168.09 Z" fill="#fcb39e" opacity="1.00" stroke="#fcb39e" stroke-width="0.25"/>
<path d="M 195.40 169.43 C 198.95 167.53 202.90 169.40 206.03 171.23 C 206.92 170.87 207.81 170.51 208.70 170.15 C 208.60 172.11 207.04 175.06 209.87 175.73 C 209.57 176.07 208.98 176.74 208.69 177.08 C 205.61 174.30 202.90 169.47 198.02 170.60 C 194.17 171.08 193.56 175.47 191.99 178.26 C 191.26 174.99 192.16 170.98 195.40 169.43 Z" fill="#530d1f" opacity="1.00" stroke="#530d1f" stroke-width="0.25"/>
<path d="M 197.79 175.79 C 201.14 173.94 205.23 176.55 205.02 180.37 C 205.10 180.79 205.26 181.61 205.35 182.03 C 199.66 183.09 193.79 183.85 188.56 186.49 C 181.31 190.09 174.77 195.06 169.08 200.80 C 168.81 200.53 168.26 199.98 167.98 199.71 C 169.33 198.53 170.81 197.45 171.85 195.97 C 171.70 193.11 169.22 189.23 172.49 187.28 C 175.35 185.27 178.43 188.04 181.00 189.26 C 185.37 186.39 190.12 184.10 195.23 182.88 C 195.53 180.41 194.94 176.97 197.79 175.79 Z" fill="#500528" opacity="1.00" stroke="#500528" stroke-width="0.25"/>
<path d="M 197.30 178.28 C 198.80 177.06 200.30 179.70 198.86 180.68 C 197.37 181.87 195.82 179.24 197.30 178.28 Z" fill="#e3a6c3" opacity="1.00" stroke="#e3a6c3" stroke-width="0.25"/>
<path d="M 168.42 181.43 C 171.38 178.12 178.63 179.26 179.31 183.96 C 176.47 182.97 173.42 179.97 170.41 182.22 C 167.04 183.83 167.18 187.98 168.04 191.05 C 168.92 192.80 167.53 193.80 166.27 194.73 C 166.39 193.64 166.53 192.54 166.68 191.45 C 165.40 191.27 164.12 191.07 162.84 190.86 C 163.74 190.38 164.63 189.90 165.54 189.44 C 165.73 186.57 165.99 183.36 168.42 181.43 Z" fill="#530d1f" opacity="1.00" stroke="#530d1f" stroke-width="0.25"/>
<path d="M 205.35 182.03 C 211.83 181.09 219.66 180.16 224.73 185.29 C 228.69 188.99 228.08 194.82 227.23 199.65 C 224.28 207.44 220.06 215.21 213.25 220.25 C 205.50 225.14 195.92 225.97 186.97 225.76 C 179.39 225.79 171.21 223.80 165.81 218.17 C 163.23 215.66 163.05 211.87 163.37 208.51 C 164.98 205.73 166.89 203.13 169.08 200.80 C 174.77 195.06 181.31 190.09 188.56 186.49 C 193.79 183.85 199.66 183.09 205.35 182.03 Z" fill="#fbc4b1" opacity="1.00" stroke="#fbc4b1" stroke-width="0.25"/>
<path d="M 153.78 185.06 C 156.49 190.79 161.03 195.25 164.70 200.29 C 164.70 202.67 163.34 204.83 162.69 207.10 C 162.03 208.89 161.35 210.67 160.68 212.46 C 159.08 208.86 158.43 204.96 157.84 201.09 C 157.02 195.61 154.48 190.57 153.78 185.06 Z" fill="#63357d" opacity="1.00" stroke="#63357d" stroke-width="0.25"/>
<path d="M 190.82 191.27 C 190.04 187.57 194.35 185.82 197.40 186.04 C 196.92 189.04 194.17 192.59 190.82 191.27 Z" fill="#50081f" opacity="1.00" stroke="#50081f" stroke-width="0.25"/>
<path d="M 136.89 192.86 C 139.22 188.04 145.41 185.11 150.45 187.54 C 153.16 188.21 153.29 191.34 154.05 193.53 C 150.43 192.64 146.01 189.76 142.57 192.52 C 138.51 197.27 141.02 204.84 146.14 207.73 C 149.64 210.40 154.17 209.55 158.21 209.11 C 158.32 210.48 158.43 211.86 158.53 213.25 C 153.53 214.01 148.01 214.42 143.57 211.52 C 137.33 207.99 133.45 199.59 136.89 192.86 Z" fill="#fcc2b7" opacity="1.00" stroke="#fcc2b7" stroke-width="0.25"/>
<path d="M 209.99 187.54 C 212.74 187.57 215.50 187.57 218.25 187.69 C 216.89 188.28 215.49 188.82 214.11 189.36 C 214.26 195.93 214.79 202.85 211.94 208.99 C 209.72 213.99 204.70 217.98 199.05 217.82 C 190.50 218.44 183.11 213.45 175.96 209.53 C 174.23 210.16 172.60 211.03 170.91 211.76 C 172.63 209.26 174.77 207.10 176.89 204.94 C 176.78 205.82 176.55 207.58 176.44 208.46 C 181.95 209.66 187.38 207.54 192.33 205.32 C 200.09 201.75 207.67 197.07 212.72 190.02 C 211.81 189.18 210.90 188.36 209.99 187.54 Z" fill="#6b0323" opacity="1.00" stroke="#6b0323" stroke-width="0.25"/>
<path d="M 85.96 192.07 C 88.33 191.03 90.49 188.22 93.35 189.64 C 96.54 192.27 99.99 195.26 101.40 199.25 C 101.83 205.15 101.21 211.09 101.57 217.01 C 101.28 218.37 100.90 219.72 100.46 221.05 C 99.25 215.10 99.12 209.05 99.67 203.03 C 100.19 199.04 97.18 195.94 94.65 193.30 C 93.50 192.36 92.19 190.62 90.52 191.46 C 88.46 191.82 89.06 194.12 89.33 195.59 C 90.14 198.19 91.69 200.47 92.60 203.03 C 91.39 206.61 87.87 209.12 87.41 213.01 C 86.98 216.40 89.30 219.21 90.39 222.24 C 88.60 220.39 86.36 218.61 85.98 215.90 C 85.66 213.19 86.35 210.49 86.63 207.81 C 85.68 209.08 84.74 210.36 83.79 211.63 C 81.18 212.67 79.15 214.57 77.94 217.11 C 76.92 217.58 75.90 218.05 74.87 218.52 C 74.08 220.65 73.10 222.71 72.10 224.75 C 67.37 224.52 62.38 220.96 57.87 223.81 C 55.53 224.83 53.71 228.08 55.80 230.22 C 57.30 231.33 59.09 230.19 60.50 229.52 C 64.21 227.47 68.24 226.01 72.41 225.29 C 79.23 222.89 84.75 228.28 90.97 229.81 C 91.40 229.64 92.26 229.30 92.69 229.13 C 93.43 229.72 94.17 230.32 94.90 230.92 C 92.36 231.09 89.60 232.16 87.22 230.82 C 83.88 229.38 80.78 227.03 77.02 226.87 C 71.37 227.29 65.66 228.70 60.90 231.87 C 58.13 233.72 53.09 232.78 52.76 228.94 C 51.95 225.36 55.21 222.96 57.66 221.03 C 57.01 219.25 56.00 217.38 56.53 215.43 C 56.87 213.35 58.97 212.44 60.52 211.38 C 60.78 209.00 60.44 206.15 62.36 204.35 C 63.93 202.71 66.33 202.62 68.44 202.29 C 69.15 200.78 69.64 199.09 70.87 197.91 C 72.53 196.74 74.67 196.76 76.60 196.43 C 77.75 195.03 78.77 193.39 80.43 192.54 C 82.22 192.02 84.12 192.27 85.96 192.07 Z" fill="#521025" opacity="1.00" stroke="#521025" stroke-width="0.25"/>
<path d="M 173.33 188.95 C 175.31 188.24 175.90 191.54 174.03 191.96 C 172.14 192.52 171.58 189.41 173.33 188.95 Z" fill="#e4abca" opacity="1.00" stroke="#e4abca" stroke-width="0.25"/>
<path d="M 90.52 191.46 C 92.19 190.62 93.50 192.36 94.65 193.30 C 97.18 195.94 100.19 199.04 99.67 203.03 C 99.12 209.05 99.25 215.10 100.46 221.05 C 98.41 224.20 95.83 227.02 92.69 229.13 C 92.26 229.30 91.40 229.64 90.97 229.81 C 90.75 227.29 90.69 224.75 90.39 222.24 C 89.30 219.21 86.98 216.40 87.41 213.01 C 87.87 209.12 91.39 206.61 92.60 203.03 C 91.69 200.47 90.14 198.19 89.33 195.59 C 89.06 194.12 88.46 191.82 90.52 191.46 Z" fill="#fbc2af" opacity="1.00" stroke="#fbc2af" stroke-width="0.25"/>
<path d="M 142.57 192.52 C 146.01 189.76 150.43 192.64 154.05 193.53 C 154.39 194.32 154.73 195.11 155.08 195.90 C 151.13 194.29 145.91 190.48 142.34 194.77 C 140.89 201.09 145.05 206.92 150.77 209.25 C 152.99 209.14 155.19 208.80 157.38 208.42 L 158.24 208.27 L 158.21 209.11 C 154.17 209.55 149.64 210.40 146.14 207.73 C 141.02 204.84 138.51 197.27 142.57 192.52 Z" fill="#530d1f" opacity="1.00" stroke="#530d1f" stroke-width="0.25"/>
<path d="M 181.18 194.99 C 181.02 191.17 185.54 190.38 188.25 191.95 C 186.58 194.07 184.07 196.41 181.18 194.99 Z" fill="#530d1f" opacity="1.00" stroke="#530d1f" stroke-width="0.25"/>
<path d="M 142.34 194.77 C 145.91 190.48 151.13 194.29 155.08 195.90 C 156.18 200.01 156.73 204.23 157.38 208.42 C 155.19 208.80 152.99 209.14 150.77 209.25 C 151.65 206.41 152.98 203.51 152.59 200.47 C 150.80 198.77 148.16 198.85 145.94 198.11 C 144.18 197.81 143.46 195.93 142.34 194.77 Z" fill="#f09687" opacity="1.00" stroke="#f09687" stroke-width="0.25"/>
<path d="M 81.34 194.18 C 82.53 193.39 84.49 193.12 85.41 194.48 C 87.54 197.03 89.15 200.00 90.50 203.02 C 89.67 204.48 88.58 207.69 86.43 206.52 C 83.86 204.09 81.58 201.31 79.71 198.31 C 78.56 196.72 79.80 194.88 81.34 194.18 Z" fill="#fcbfad" opacity="1.00" stroke="#fcbfad" stroke-width="0.25"/>
<path d="M 142.34 194.77 C 143.46 195.93 144.18 197.81 145.94 198.11 C 148.16 198.85 150.80 198.77 152.59 200.47 C 152.98 203.51 151.65 206.41 150.77 209.25 C 145.05 206.92 140.89 201.09 142.34 194.77 Z" fill="#fbad9a" opacity="1.00" stroke="#fbad9a" stroke-width="0.25"/>
<path d="M 73.27 199.08 C 75.97 197.75 78.07 200.63 79.66 202.37 C 81.10 204.13 82.65 205.87 83.55 207.99 C 84.08 210.14 81.06 212.30 79.32 210.83 C 76.47 208.66 73.92 206.08 71.62 203.35 C 70.35 201.87 71.53 199.51 73.27 199.08 Z" fill="#fcc0b0" opacity="1.00" stroke="#fcc0b0" stroke-width="0.25"/>
<path d="M 200.72 209.40 C 203.41 205.93 207.02 202.90 211.75 203.42 C 211.27 208.48 208.27 213.50 203.44 215.46 C 199.34 217.22 194.77 216.29 190.69 214.99 C 192.41 211.00 196.54 209.17 200.72 209.40 Z" fill="#fc84a4" opacity="1.00" stroke="#fc84a4" stroke-width="0.25"/>
<path d="M 62.53 208.99 C 62.67 206.45 65.20 203.74 67.89 204.64 C 71.24 206.22 74.08 208.77 76.46 211.58 C 77.79 212.82 77.31 214.69 77.42 216.30 C 73.50 217.34 70.77 214.12 67.62 212.48 C 65.88 211.39 63.74 210.76 62.53 208.99 Z" fill="#fcc1b1" opacity="1.00" stroke="#fcc1b1" stroke-width="0.25"/>
<path d="M 83.79 211.63 C 84.74 210.36 85.68 209.08 86.63 207.81 C 86.35 210.49 85.66 213.19 85.98 215.90 C 86.36 218.61 88.60 220.39 90.39 222.24 C 90.69 224.75 90.75 227.29 90.97 229.81 C 84.75 228.28 79.23 222.89 72.41 225.29 L 72.10 224.75 C 73.10 222.71 74.08 220.65 74.87 218.52 C 75.90 218.05 76.92 217.58 77.94 217.11 C 79.15 214.57 81.18 212.67 83.79 211.63 Z" fill="#f59c8b" opacity="1.00" stroke="#f59c8b" stroke-width="0.25"/>
<path d="M 58.46 218.01 C 57.76 215.25 60.67 212.30 63.39 213.61 C 67.11 215.28 71.24 217.08 73.23 220.89 C 71.78 221.72 70.26 223.41 68.45 222.48 C 65.10 221.07 61.46 220.11 58.46 218.01 Z" fill="#fcc2b0" opacity="1.00" stroke="#fcc2b0" stroke-width="0.25"/>
<path d="M 230.37 219.52 C 239.47 217.65 247.90 222.43 255.90 226.03 C 272.98 234.29 289.65 243.39 306.04 252.94 C 319.86 260.95 332.66 272.25 338.73 287.37 C 342.24 295.78 343.16 306.10 338.26 314.16 C 334.44 320.91 327.13 325.16 319.59 326.34 C 307.52 327.85 295.17 322.83 286.59 314.41 C 279.07 307.24 272.37 298.87 263.03 293.96 C 260.72 292.63 257.79 292.11 256.20 289.81 C 247.77 278.39 240.04 266.47 232.40 254.52 C 228.35 247.97 224.29 241.17 222.57 233.59 C 221.36 227.84 224.31 220.97 230.37 219.52 Z" fill="#fbc7b2" opacity="1.00" stroke="#fbc7b2" stroke-width="0.25"/>
<path d="M 57.87 223.81 C 62.38 220.96 67.37 224.52 72.10 224.75 L 72.41 225.29 C 68.24 226.01 64.21 227.47 60.50 229.52 C 59.09 230.19 57.30 231.33 55.80 230.22 C 53.71 228.08 55.53 224.83 57.87 223.81 Z" fill="#fcbfb2" opacity="1.00" stroke="#fcbfb2" stroke-width="0.25"/>
<path d="M 330.93 248.12 C 331.62 245.68 333.09 242.68 336.02 242.63 C 341.58 241.89 346.54 245.07 350.94 248.03 C 356.49 251.69 361.39 256.22 365.96 261.03 C 375.91 270.55 383.80 281.92 392.07 292.87 C 395.82 296.77 392.60 302.62 389.24 305.64 C 383.01 295.85 374.59 287.65 365.47 280.57 C 359.87 275.84 354.61 270.71 349.61 265.36 C 348.95 265.35 347.62 265.31 346.96 265.30 C 348.80 269.44 352.29 272.51 354.43 276.46 C 355.33 280.65 354.76 285.02 354.26 289.23 C 352.90 296.79 351.69 304.49 348.42 311.51 C 345.41 318.16 343.48 325.79 337.72 330.72 C 328.45 337.87 316.61 341.33 304.97 341.14 C 296.60 340.51 289.05 336.28 282.12 331.85 C 277.12 328.77 276.59 322.34 274.63 317.34 C 273.99 317.33 272.72 317.32 272.09 317.32 C 273.91 328.51 278.60 338.97 282.47 349.56 C 284.25 354.81 287.21 359.55 289.20 364.72 C 285.76 365.58 282.44 366.87 278.99 367.65 C 275.35 364.37 273.07 359.87 269.75 356.28 C 260.41 345.47 252.19 333.56 246.86 320.25 C 246.39 319.03 246.14 317.70 246.37 316.40 C 247.85 310.60 246.75 303.43 251.14 298.83 C 261.65 298.05 269.13 307.01 278.15 310.90 C 278.02 310.47 277.77 309.60 277.64 309.17 C 281.55 311.53 284.41 315.16 287.93 318.02 C 295.42 324.36 305.13 328.24 315.01 328.05 C 325.07 328.57 335.27 323.16 340.17 314.30 C 343.10 309.40 343.24 303.49 342.98 297.95 C 342.63 290.03 339.29 282.56 334.95 276.05 C 332.93 272.92 330.12 269.97 329.96 266.04 C 329.40 260.08 329.36 253.94 330.93 248.12 Z" fill="#653684" opacity="1.00" stroke="#653684" stroke-width="0.25"/>
<path d="M 407.68 273.59 C 408.94 272.22 409.90 269.98 412.09 270.14 C 414.34 269.70 416.17 271.21 417.94 272.34 C 419.61 271.70 421.22 270.66 423.06 270.63 C 425.11 270.87 426.49 272.59 428.00 273.82 C 429.97 273.68 431.98 273.33 433.96 273.67 C 436.31 274.86 436.34 277.98 438.22 279.67 C 439.87 281.15 441.38 283.55 439.81 285.66 C 437.76 289.08 433.37 288.32 430.02 288.78 C 426.61 289.05 424.37 291.91 422.27 294.28 C 418.88 298.37 415.15 302.42 413.44 307.56 C 411.66 312.42 410.63 317.96 406.63 321.61 C 401.66 326.40 392.25 325.42 388.91 319.18 C 386.71 315.79 387.65 311.62 388.18 307.90 C 388.74 308.66 389.31 309.42 389.88 310.19 C 388.80 314.68 390.58 319.49 394.66 321.81 C 397.95 322.73 401.84 322.98 404.54 320.49 C 409.55 316.28 409.89 309.21 412.80 303.71 C 416.24 297.23 421.47 291.96 426.61 286.82 C 430.56 286.34 435.83 287.70 438.51 283.94 C 438.45 282.71 437.88 281.80 436.80 281.20 C 433.40 281.78 430.52 283.84 427.31 284.96 C 428.75 282.06 431.85 280.82 434.20 278.82 C 435.20 276.22 432.27 274.58 430.11 275.72 C 426.93 277.71 424.82 280.98 421.78 283.18 C 423.02 279.69 424.98 276.44 425.46 272.70 C 423.71 273.07 421.32 272.43 420.21 274.20 C 418.21 277.04 417.10 280.38 415.30 283.34 C 414.32 279.69 415.79 276.01 415.75 272.33 C 413.68 272.40 410.74 271.53 409.91 274.16 C 409.23 278.26 409.87 282.45 409.33 286.57 C 407.00 283.83 408.24 280.02 407.01 276.90 C 405.88 274.87 402.71 274.73 401.79 277.04 C 401.31 280.75 401.80 284.54 401.09 288.23 C 400.50 290.99 398.70 293.25 397.29 295.63 C 396.12 294.58 394.98 293.51 393.97 292.31 C 394.51 292.54 395.59 293.01 396.14 293.25 C 400.06 289.11 399.46 283.28 399.51 278.04 C 399.32 276.01 401.03 274.65 402.14 273.20 C 403.98 273.31 405.83 273.44 407.68 273.59 Z" fill="#561524" opacity="1.00" stroke="#561524" stroke-width="0.25"/>
<path d="M 409.91 274.16 C 410.74 271.53 413.68 272.40 415.75 272.33 C 415.79 276.01 414.32 279.69 415.30 283.34 C 417.10 280.38 418.21 277.04 420.21 274.20 C 421.32 272.43 423.71 273.07 425.46 272.70 C 424.98 276.44 423.02 279.69 421.78 283.18 C 424.82 280.98 426.93 277.71 430.11 275.72 C 432.27 274.58 435.20 276.22 434.20 278.82 C 431.85 280.82 428.75 282.06 427.31 284.96 C 430.52 283.84 433.40 281.78 436.80 281.20 C 437.88 281.80 438.45 282.71 438.51 283.94 C 435.83 287.70 430.56 286.34 426.61 286.82 C 423.56 284.92 419.83 283.53 416.36 285.20 C 411.13 286.59 409.27 292.07 407.46 296.54 C 404.05 305.37 399.70 313.80 394.66 321.81 C 390.58 319.49 388.80 314.68 389.88 310.19 C 392.60 305.46 394.82 300.48 397.29 295.63 C 398.70 293.25 400.50 290.99 401.09 288.23 C 401.80 284.54 401.31 280.75 401.79 277.04 C 402.71 274.73 405.88 274.87 407.01 276.90 C 408.24 280.02 407.00 283.83 409.33 286.57 C 409.87 282.45 409.23 278.26 409.91 274.16 Z" fill="#fbc2af" opacity="1.00" stroke="#fbc2af" stroke-width="0.25"/>
<path d="M 416.36 285.20 C 419.83 283.53 423.56 284.92 426.61 286.82 C 421.47 291.96 416.24 297.23 412.80 303.71 C 409.89 309.21 409.55 316.28 404.54 320.49 C 401.84 322.98 397.95 322.73 394.66 321.81 C 399.70 313.80 404.05 305.37 407.46 296.54 C 409.27 292.07 411.13 286.59 416.36 285.20 Z" fill="#f59c8b" opacity="1.00" stroke="#f59c8b" stroke-width="0.25"/>
<path d="M 248.14 298.24 C 250.19 294.45 255.33 292.81 259.18 294.81 C 266.31 298.07 272.77 303.04 277.64 309.17 C 277.77 309.60 278.02 310.47 278.15 310.90 C 269.13 307.01 261.65 298.05 251.14 298.83 C 246.75 303.43 247.85 310.60 246.37 316.40 C 245.15 310.40 244.93 303.68 248.14 298.24 Z" fill="#764393" opacity="1.00" stroke="#764393" stroke-width="0.25"/>
<path d="M 158.29 313.14 C 165.73 309.35 175.24 310.18 182.02 315.00 C 189.07 320.11 192.28 330.36 188.34 338.31 C 186.64 341.29 183.97 344.68 180.19 344.56 C 178.33 344.43 175.52 343.47 176.08 341.11 C 177.77 338.06 181.00 335.70 181.12 331.95 C 181.87 327.18 178.87 322.42 174.61 320.43 C 169.25 318.28 162.66 319.51 158.48 323.52 C 153.64 328.05 151.78 335.09 152.54 341.54 C 153.48 348.59 155.76 355.50 159.51 361.57 C 169.54 377.48 185.85 389.21 204.07 393.83 C 215.37 396.85 227.24 396.20 238.76 395.03 C 237.96 397.93 238.98 403.27 234.88 403.65 C 219.36 405.45 203.08 404.00 188.79 397.34 C 169.30 388.84 152.55 372.69 145.80 352.26 C 143.11 343.42 142.58 333.36 146.85 324.92 C 149.18 319.84 153.23 315.55 158.29 313.14 Z" fill="#653583" opacity="1.00" stroke="#653583" stroke-width="0.25"/>
<path d="M 280.06 333.98 C 284.11 336.27 287.86 339.14 292.27 340.75 C 297.98 343.11 304.10 344.23 310.25 344.53 C 306.02 352.46 299.60 359.03 292.84 364.86 C 289.30 360.35 287.26 354.95 285.28 349.64 C 283.44 344.45 281.26 339.36 280.06 333.98 Z" fill="#cccad7" opacity="1.00" stroke="#cccad7" stroke-width="0.25"/>
<path d="M 313.75 344.82 C 317.34 343.40 321.20 342.69 325.02 342.27 C 325.68 343.55 324.34 344.76 323.90 345.90 C 318.16 354.91 311.42 363.27 303.73 370.69 C 301.43 368.69 299.04 366.82 296.59 365.02 C 300.88 360.50 305.34 356.08 308.96 350.97 C 310.53 348.90 311.81 346.57 313.75 344.82 Z" fill="#623480" opacity="1.00" stroke="#623480" stroke-width="0.25"/>
<path d="M 275.96 371.93 C 282.96 366.72 294.18 364.07 301.07 370.87 C 295.26 374.26 288.56 375.55 282.55 378.48 C 276.36 380.93 270.72 384.92 264.03 385.92 C 259.82 386.64 255.57 387.17 251.47 388.38 C 251.50 388.76 251.55 389.51 251.58 389.89 C 252.09 392.45 251.64 394.99 250.25 397.21 C 248.99 396.40 247.75 395.59 246.51 394.78 C 247.54 399.02 247.39 403.65 245.67 407.69 C 244.77 409.25 243.07 409.38 241.69 408.38 C 240.24 406.17 240.20 403.43 239.91 400.90 C 241.03 393.39 245.43 385.40 253.07 383.00 C 261.03 380.10 269.34 377.45 275.96 371.93 Z" fill="#fbc3b0" opacity="1.00" stroke="#fbc3b0" stroke-width="0.25"/>
<path d="M 301.07 370.87 L 301.59 371.33 C 301.91 376.39 297.89 379.80 293.70 381.70 C 286.81 385.05 279.32 386.96 271.90 388.69 C 265.89 390.28 259.44 388.62 253.65 391.22 C 253.35 390.83 252.75 390.06 252.46 389.67 C 252.24 389.72 251.80 389.83 251.58 389.89 C 251.55 389.51 251.50 388.76 251.47 388.38 C 255.57 387.17 259.82 386.64 264.03 385.92 C 270.72 384.92 276.36 380.93 282.55 378.48 C 288.56 375.55 295.26 374.26 301.07 370.87 Z" fill="#f59f8e" opacity="1.00" stroke="#f59f8e" stroke-width="0.25"/>
<path d="M 301.59 371.33 C 302.33 371.98 303.09 372.62 303.85 373.26 C 303.01 375.72 302.27 378.42 300.11 380.09 C 294.90 384.42 287.99 385.71 282.31 389.26 C 275.32 393.41 267.22 395.77 260.96 401.08 C 260.56 403.92 261.88 408.05 258.41 409.39 C 254.88 411.89 251.40 408.83 249.10 406.27 C 247.53 408.32 246.25 411.55 243.05 410.81 C 239.51 411.03 239.41 406.06 236.12 405.55 C 237.98 404.58 239.17 402.81 239.91 400.90 C 240.20 403.43 240.24 406.17 241.69 408.38 C 243.07 409.38 244.77 409.25 245.67 407.69 C 247.39 403.65 247.54 399.02 246.51 394.78 C 247.75 395.59 248.99 396.40 250.25 397.21 C 251.64 394.99 252.09 392.45 251.58 389.89 C 251.80 389.83 252.24 389.72 252.46 389.67 C 252.75 390.06 253.35 390.83 253.65 391.22 C 259.44 388.62 265.89 390.28 271.90 388.69 C 279.32 386.96 286.81 385.05 293.70 381.70 C 297.89 379.80 301.91 376.39 301.59 371.33 Z" fill="#540d2d" opacity="1.00" stroke="#540d2d" stroke-width="0.25"/>
<path d="M 251.89 406.06 C 249.17 400.82 252.87 394.92 257.14 391.86 C 260.51 391.18 263.98 391.62 267.40 391.47 C 267.44 392.01 267.53 393.08 267.57 393.62 C 264.55 395.68 261.22 397.38 258.60 399.97 C 258.54 402.19 258.93 404.42 258.68 406.64 C 257.06 408.99 253.02 408.74 251.89 406.06 Z" fill="#faada1" opacity="1.00" stroke="#faada1" stroke-width="0.25"/>
</svg>